<svg width="6005" height="4916" viewBox="0 0 6005 4916" fill="none" xmlns="http://www.w3.org/2000/svg">
<g id="kocowork-logo-orange">
<path fill-rule="evenodd" clip-rule="evenodd" d="M1902.98 4915.37L1902.35 4916L0.00556258 3013.7L0 3013.7H0.00970694L1592.4 1421.34L2058.68 1421.31L2058.71 1421.35H2058.78L2058.75 1421.38L3002.5 2365.22L3946.25 1421.38L3946.22 1421.35H3946.28L3946.32 1421.31L4412.6 1421.35L6005 3013.69H6002.5L6005 3013.7L4102.65 4916L4102.02 4915.37L1902.98 4915.37ZM2181.77 3651.81L2182.08 3651.51L1949.19 3418.63L2769.31 2598.43L1825.54 1654.58L466.994 3013.09L2038.39 4585.6L3001.02 4585.6V4585.6L3966.68 4585.6L5538.63 3013.67L4179.46 1654.57L3235.68 2598.43L4055.81 3418.63L3823.76 3650.68L3822.62 3651.82L3002.76 4472.78L2181.77 3651.81ZM2415.52 3418.66L3002.5 2831.63L3590.05 3419.23L3002.76 4005.89L2415.52 3418.66Z" fill="#FF462E" style="fill:#FF462E;fill:color(display-p3 1.0000 0.2745 0.1804);fill-opacity:1;"/>
<path fill-rule="evenodd" clip-rule="evenodd" d="M4009.02 981.511L3003.4 0L1997.79 981.511H2626.11L3003.4 614.421L3380.7 981.511H4009.02Z" fill="#FF462E" style="fill:#FF462E;fill:color(display-p3 1.0000 0.2745 0.1804);fill-opacity:1;"/>
<path d="M1846.98 2701.68L1846.98 3276.47L1272.18 2701.69L1846.98 2701.68Z" fill="#FF462E" style="fill:#FF462E;fill:color(display-p3 1.0000 0.2745 0.1804);fill-opacity:1;"/>
<path d="M4157.47 2701.68L4157.48 3276.47L4732.27 2701.69L4157.47 2701.68Z" fill="#FF462E" style="fill:#FF462E;fill:color(display-p3 1.0000 0.2745 0.1804);fill-opacity:1;"/>
</g>
</svg>
